User Type,Username,Date,Text
[V],djDEVASTATE2009,2009-08-31T01:26Z,http://www.imdb.com/title/tt1104126/
[T],whodathoughtit,2009-08-31T01:44Z,"how is it so small from dvd9.?
is this recoded from avi or is it a rip without conversion 

does it have a menu and extras.?

thank you"
[V],djDEVASTATE2009,2009-08-31T01:56Z,its from dvd 9 untouched mate the extras were 3+gig all i did was use dvd shrink and extracted the movie with no compression and its straight from dvd 9 i hired myself today from my local dvd rental shop
[V],djDEVASTATE2009,2009-08-31T01:57Z,i was gonna rip it to div-x but i did not have the time enjoy full movie uncompressed maximum quality
[V],djDEVASTATE2009,2009-08-31T01:59Z,"heres the media info of one of the vob files


General
Complete name                    : D:\My Uploads\Shifty.R2.Rental.DVDR.ENG.PAL(djDEVASTATE?)\VIDEO_TS\VTS_01_1.VOB
Format                           : MPEG-PS
File size                        : 1 024 MiB
Duration                         : 24mn 50s
Overall bit rate                 : 5 765 Kbps

Video
ID                               : 224 (0xE0)
Format                           : MPEG Video
Format version                   : Version 2
Format profile                   : Main@Main
Format settings, Matrix          : Default
Duration                         : 24mn 50s
Bit rate mode                    : Variable
Bit rate                         : 5 088 Kbps
Nominal bit rate                 : 9 800 Kbps
Width                            : 720 pixels
Height                           : 576 pixels
Display aspect ratio             : 16:9
Frame rate                       : 25.000 fps
Standard                         : PAL
Colorimetry                      : 4:2:0
Scan type                        : Interlaced
Scan order                       : Top Field First
Bits/(Pixel*Frame)               : 0.491
Stream size                      : 904 MiB (88%)

Audio
ID                               : 128 (0x80)
Format                           : AC-3
Format/Info                      : Audio Coding 3
Duration                         : 24mn 49s
Bit rate mode                    : Constant
Bit rate                         : 448 Kbps
Channel(s)                       : 6 channels
Channel positions                : Front: L C R, Surround: L R, LFE
Sampling rate                    : 48.0 KHz
Stream size                      : 79.6 MiB (8%)

Menu
"
[T],whodathoughtit,2009-08-31T02:03Z,Ok Thanks dj will seed
[V],djDEVASTATE2009,2009-08-31T02:11Z,"@ whodathoughtit
no problem mate thanks for seeding"
